<?xml version="1.0" standalone="no"?>
<!DOCTYPE svg PUBLIC "-//W3C//DTD SVG 20010904//EN"
 "http://www.w3.org/TR/2001/REC-SVG-20010904/DTD/svg10.dtd">
<svg version="1.0" xmlns="http://www.w3.org/2000/svg"
 width="1440.000000pt" height="320.000000pt" viewBox="0 0 1440.000000 320.000000"
 preserveAspectRatio="xMidYMid meet">

<g transform="translate(0.000000,320.000000) scale(0.100000,-0.100000)"
fill="#000000" stroke="none">
<path d="M5161 2629 c-309 -33 -646 -151 -967 -340 -219 -129 -464 -309 -844
-620 -516 -422 -680 -549 -885 -686 -382 -256 -668 -369 -1105 -435 -116 -18
-622 -17 -755 0 -90 12 -490 73 -572 87 l-33 6 0 -321 0 -320 7200 0 7200 0 0
1280 0 1280 -142 -112 c-343 -271 -636 -480 -843 -598 -396 -228 -776 -333
-1087 -301 -262 28 -436 89 -1018 359 -676 313 -961 351 -1405 185 -127 -47
-305 -137 -625 -313 -587 -325 -798 -399 -1095 -387 -188 8 -319 45 -543 152
-173 84 -320 172 -582 351 -549 374 -732 487 -923 571 -320 141 -649 196 -976
162z"/>
</g>
</svg>
